<?xml version="1.0" encoding="UTF-8"?>
<svg xmlns="http://www.w3.org/2000/svg" width="800" height="400">
    <rect width="100%" height="100%" fill="#f0f0f0"/>
    <text x="400.0" y="30" font-family="Arial" font-size="20" text-anchor="middle" fill="#333">Altimetría: Senda Costera de Muros del Nalón</text>
    <text x="400.0" y="55" font-family="Arial" font-size="14" text-anchor="middle" fill="#666">Distancia total: 5609m</text>

    <!-- Eje X -->
    <line x1="50" y1="350" x2="750" y2="350" stroke="#333" stroke-width="2"/>
    <text x="400.0" y="390" font-family="Arial" font-size="12" text-anchor="middle" fill="#333">Distancia (m)</text>
    
    <!-- Eje Y -->
    <line x1="50" y1="350" x2="50" y2="50" stroke="#333" stroke-width="2"/>
    <text x="15" y="200.0" font-family="Arial" font-size="12" text-anchor="middle" fill="#333" transform="rotate(270, 15, 200.0)">Altitud (m)</text>

    <line x1="50.0" y1="350" x2="50.0" y2="355" stroke="#333" stroke-width="1"/>
    <text x="50.0" y="370" font-family="Arial" font-size="10" text-anchor="middle" fill="#333">0</text>

    <line x1="225.0" y1="350" x2="225.0" y2="355" stroke="#333" stroke-width="1"/>
    <text x="225.0" y="370" font-family="Arial" font-size="10" text-anchor="middle" fill="#333">1402</text>

    <line x1="400.0" y1="350" x2="400.0" y2="355" stroke="#333" stroke-width="1"/>
    <text x="400.0" y="370" font-family="Arial" font-size="10" text-anchor="middle" fill="#333">2804</text>

    <line x1="575.0" y1="350" x2="575.0" y2="355" stroke="#333" stroke-width="1"/>
    <text x="575.0" y="370" font-family="Arial" font-size="10" text-anchor="middle" fill="#333">4206</text>

    <line x1="750.0" y1="350" x2="750.0" y2="355" stroke="#333" stroke-width="1"/>
    <text x="750.0" y="370" font-family="Arial" font-size="10" text-anchor="middle" fill="#333">5609</text>

    <line x1="50" y1="350.0" x2="45" y2="350.0" stroke="#333" stroke-width="1"/>
    <text x="40" y="355.0" font-family="Arial" font-size="10" text-anchor="end" fill="#333">0</text>

    <line x1="50" y1="275.0" x2="45" y2="275.0" stroke="#333" stroke-width="1"/>
    <text x="40" y="280.0" font-family="Arial" font-size="10" text-anchor="end" fill="#333">31</text>

    <line x1="50" y1="200.0" x2="45" y2="200.0" stroke="#333" stroke-width="1"/>
    <text x="40" y="205.0" font-family="Arial" font-size="10" text-anchor="end" fill="#333">62</text>

    <line x1="50" y1="125.0" x2="45" y2="125.0" stroke="#333" stroke-width="1"/>
    <text x="40" y="130.0" font-family="Arial" font-size="10" text-anchor="end" fill="#333">93</text>

    <line x1="50" y1="50.0" x2="45" y2="50.0" stroke="#333" stroke-width="1"/>
    <text x="40" y="55.0" font-family="Arial" font-size="10" text-anchor="end" fill="#333">125</text>

    <polygon points="50.0,338.0287310454908 87.81422713496167,110.57462090981645 207.6216794437511,77.05506783719073 469.70048136922804,180.00798084596966 522.3658406133001,347.6057462090982 690.8450704225352,91.42059058260173 750.0,326.05746209098163 750.0,350 50.0,350" fill="#4285F4" fill-opacity="0.2" stroke="none"/>

    <polyline points="50.0,338.0287310454908 87.81422713496167,110.57462090981645 207.6216794437511,77.05506783719073 469.70048136922804,180.00798084596966 522.3658406133001,347.6057462090982 690.8450704225352,91.42059058260173 750.0,326.05746209098163" fill="none" stroke="#4285F4" stroke-width="3"/>

    <circle cx="50.0" cy="338.0287310454908" r="4" fill="#4285F4" stroke="#fff" stroke-width="1"/>
    <text x="50.0" y="328.0287310454908" font-family="Arial" font-size="10" text-anchor="middle" fill="#333">5m</text>

    <text x="50.0" y="358.0287310454908" font-family="Arial" font-size="9" text-anchor="middle" fill="#333" transform="rotate(45, 50.0, 358.0287310454908)">Puerto de San Esteban de Pravia</text>

    <circle cx="87.81422713496167" cy="110.57462090981645" r="4" fill="#4285F4" stroke="#fff" stroke-width="1"/>
    <text x="87.81422713496167" y="100.57462090981645" font-family="Arial" font-size="10" text-anchor="middle" fill="#333">100m</text>

    <text x="87.81422713496167" y="130.57462090981645" font-family="Arial" font-size="9" text-anchor="middle" fill="#333" transform="rotate(45, 87.81422713496167, 130.57462090981645)">Mirador del Espíritu Santo</text>

    <circle cx="207.6216794437511" cy="77.05506783719073" r="4" fill="#4285F4" stroke="#fff" stroke-width="1"/>
    <text x="207.6216794437511" y="67.05506783719073" font-family="Arial" font-size="10" text-anchor="middle" fill="#333">114m</text>

    <text x="207.6216794437511" y="97.05506783719073" font-family="Arial" font-size="9" text-anchor="middle" fill="#333" transform="rotate(45, 207.6216794437511, 97.05506783719073)">Mirador de la Atalaya</text>

    <circle cx="469.70048136922804" cy="180.00798084596966" r="4" fill="#4285F4" stroke="#fff" stroke-width="1"/>
    <text x="469.70048136922804" y="170.00798084596966" font-family="Arial" font-size="10" text-anchor="middle" fill="#333">71m</text>

    <text x="469.70048136922804" y="200.00798084596966" font-family="Arial" font-size="9" text-anchor="middle" fill="#333" transform="rotate(45, 469.70048136922804, 200.00798084596966)">Mirador de los Glayos</text>

    <circle cx="522.3658406133001" cy="347.6057462090982" r="4" fill="#4285F4" stroke="#fff" stroke-width="1"/>
    <text x="522.3658406133001" y="337.6057462090982" font-family="Arial" font-size="10" text-anchor="middle" fill="#333">1m</text>

    <text x="522.3658406133001" y="367.6057462090982" font-family="Arial" font-size="9" text-anchor="middle" fill="#333" transform="rotate(45, 522.3658406133001, 367.6057462090982)">Playas de Xan-Xún y Las Llanas</text>

    <circle cx="690.8450704225352" cy="91.42059058260173" r="4" fill="#4285F4" stroke="#fff" stroke-width="1"/>
    <text x="690.8450704225352" y="81.42059058260173" font-family="Arial" font-size="10" text-anchor="middle" fill="#333">108m</text>

    <text x="690.8450704225352" y="111.42059058260173" font-family="Arial" font-size="9" text-anchor="middle" fill="#333" transform="rotate(45, 690.8450704225352, 111.42059058260173)">Mirador Punta del Campón</text>

    <circle cx="750.0" cy="326.05746209098163" r="4" fill="#4285F4" stroke="#fff" stroke-width="1"/>
    <text x="750.0" y="316.05746209098163" font-family="Arial" font-size="10" text-anchor="middle" fill="#333">10m</text>

    <text x="750.0" y="346.05746209098163" font-family="Arial" font-size="9" text-anchor="middle" fill="#333" transform="rotate(45, 750.0, 346.05746209098163)">Area Recreativa Playa del Aguila</text>

</svg>
