<?xml version="1.0" encoding="UTF-8"?>
<svg xmlns="http://www.w3.org/2000/svg" width="800" height="400">
    <rect width="100%" height="100%" fill="#f0f0f0"/>
    <text x="400.0" y="30" font-family="Arial" font-size="20" text-anchor="middle" fill="#333">Altimetría de Rutas</text>

    <!-- Eje X -->
    <line x1="50" y1="350" x2="750" y2="350" stroke="#333" stroke-width="2"/>
    <text x="400.0" y="390" font-family="Arial" font-size="12" text-anchor="middle" fill="#333">Distancia (m)</text>
    
    <!-- Eje Y -->
    <line x1="50" y1="350" x2="50" y2="50" stroke="#333" stroke-width="2"/>
    <text x="15" y="200.0" font-family="Arial" font-size="12" text-anchor="middle" fill="#333" transform="rotate(270, 15, 200.0)">Altitud (m)</text>

    <line x1="50.0" y1="350" x2="50.0" y2="355" stroke="#333" stroke-width="1"/>
    <text x="50.0" y="370" font-family="Arial" font-size="10" text-anchor="middle" fill="#333">0</text>

    <line x1="225.0" y1="350" x2="225.0" y2="355" stroke="#333" stroke-width="1"/>
    <text x="225.0" y="370" font-family="Arial" font-size="10" text-anchor="middle" fill="#333">1218</text>

    <line x1="400.0" y1="350" x2="400.0" y2="355" stroke="#333" stroke-width="1"/>
    <text x="400.0" y="370" font-family="Arial" font-size="10" text-anchor="middle" fill="#333">2436</text>

    <line x1="575.0" y1="350" x2="575.0" y2="355" stroke="#333" stroke-width="1"/>
    <text x="575.0" y="370" font-family="Arial" font-size="10" text-anchor="middle" fill="#333">3654</text>

    <line x1="750.0" y1="350" x2="750.0" y2="355" stroke="#333" stroke-width="1"/>
    <text x="750.0" y="370" font-family="Arial" font-size="10" text-anchor="middle" fill="#333">4872</text>

    <line x1="50" y1="350.0" x2="45" y2="350.0" stroke="#333" stroke-width="1"/>
    <text x="40" y="355.0" font-family="Arial" font-size="10" text-anchor="end" fill="#333">0</text>

    <line x1="50" y1="275.0" x2="45" y2="275.0" stroke="#333" stroke-width="1"/>
    <text x="40" y="280.0" font-family="Arial" font-size="10" text-anchor="end" fill="#333">36</text>

    <line x1="50" y1="200.0" x2="45" y2="200.0" stroke="#333" stroke-width="1"/>
    <text x="40" y="205.0" font-family="Arial" font-size="10" text-anchor="end" fill="#333">73</text>

    <line x1="50" y1="125.0" x2="45" y2="125.0" stroke="#333" stroke-width="1"/>
    <text x="40" y="130.0" font-family="Arial" font-size="10" text-anchor="end" fill="#333">109</text>

    <line x1="50" y1="50.0" x2="45" y2="50.0" stroke="#333" stroke-width="1"/>
    <text x="40" y="55.0" font-family="Arial" font-size="10" text-anchor="end" fill="#333">146</text>

    <polygon points="50.0,339.7400820793434 50.0,144.8016415868673 193.67816091954023,339.7400820793434 495.40229885057465,204.30916552667577 556.0344827586207,347.94801641586866 750.0,128.38577291381668 750.0,350 50.0,350" fill="#4285F4" fill-opacity="0.2" stroke="none"/>

    <polyline points="50.0,339.7400820793434 50.0,144.8016415868673 193.67816091954023,339.7400820793434 495.40229885057465,204.30916552667577 556.0344827586207,347.94801641586866 750.0,128.38577291381668" fill="none" stroke="#4285F4" stroke-width="3"/>

    <circle cx="50.0" cy="339.7400820793434" r="4" fill="#4285F4" stroke="#fff" stroke-width="1"/>

    <circle cx="50.0" cy="144.8016415868673" r="4" fill="#4285F4" stroke="#fff" stroke-width="1"/>

    <circle cx="193.67816091954023" cy="339.7400820793434" r="4" fill="#4285F4" stroke="#fff" stroke-width="1"/>

    <circle cx="495.40229885057465" cy="204.30916552667577" r="4" fill="#4285F4" stroke="#fff" stroke-width="1"/>

    <circle cx="556.0344827586207" cy="347.94801641586866" r="4" fill="#4285F4" stroke="#fff" stroke-width="1"/>

    <circle cx="750.0" cy="128.38577291381668" r="4" fill="#4285F4" stroke="#fff" stroke-width="1"/>

    <rect x="520" y="60" width="15" height="15" fill="#4285F4"/>
    <text x="540" y="72" font-family="Arial" font-size="12" fill="#333">Senda Costera de Muros del Nalón (4872m)</text>

    <polygon points="50.0,81.19015047879617 87.35632183908046,77.0861833105335 114.6551724137931,85.29411764705878 137.5,93.50205198358412 168.39080459770113,83.24213406292745 200.57471264367814,83.24213406292745 200.57471264367814,350 50.0,350" fill="#DB4437" fill-opacity="0.2" stroke="none"/>

    <polyline points="50.0,81.19015047879617 87.35632183908046,77.0861833105335 114.6551724137931,85.29411764705878 137.5,93.50205198358412 168.39080459770113,83.24213406292745 200.57471264367814,83.24213406292745" fill="none" stroke="#DB4437" stroke-width="3"/>

    <circle cx="50.0" cy="81.19015047879617" r="4" fill="#DB4437" stroke="#fff" stroke-width="1"/>

    <circle cx="87.35632183908046" cy="77.0861833105335" r="4" fill="#DB4437" stroke="#fff" stroke-width="1"/>

    <circle cx="114.6551724137931" cy="85.29411764705878" r="4" fill="#DB4437" stroke="#fff" stroke-width="1"/>

    <circle cx="137.5" cy="93.50205198358412" r="4" fill="#DB4437" stroke="#fff" stroke-width="1"/>

    <circle cx="168.39080459770113" cy="83.24213406292745" r="4" fill="#DB4437" stroke="#fff" stroke-width="1"/>

    <circle cx="200.57471264367814" cy="83.24213406292745" r="4" fill="#DB4437" stroke="#fff" stroke-width="1"/>

    <rect x="520" y="80" width="15" height="15" fill="#DB4437"/>
    <text x="540" y="92" font-family="Arial" font-size="12" fill="#333">Rutas por la Villa de Muros (1048m)</text>

    <polygon points="50.0,339.7400820793434 68.67816091954023,337.68809849521205 87.21264367816092,331.53214774281804 120.25862068965517,321.2722298221614 140.08620689655172,319.2202462380301 162.35632183908046,311.0123119015048 162.35632183908046,350 50.0,350" fill="#F4B400" fill-opacity="0.2" stroke="none"/>

    <polyline points="50.0,339.7400820793434 68.67816091954023,337.68809849521205 87.21264367816092,331.53214774281804 120.25862068965517,321.2722298221614 140.08620689655172,319.2202462380301 162.35632183908046,311.0123119015048" fill="none" stroke="#F4B400" stroke-width="3"/>

    <circle cx="50.0" cy="339.7400820793434" r="4" fill="#F4B400" stroke="#fff" stroke-width="1"/>

    <circle cx="68.67816091954023" cy="337.68809849521205" r="4" fill="#F4B400" stroke="#fff" stroke-width="1"/>

    <circle cx="87.21264367816092" cy="331.53214774281804" r="4" fill="#F4B400" stroke="#fff" stroke-width="1"/>

    <circle cx="120.25862068965517" cy="321.2722298221614" r="4" fill="#F4B400" stroke="#fff" stroke-width="1"/>

    <circle cx="140.08620689655172" cy="319.2202462380301" r="4" fill="#F4B400" stroke="#fff" stroke-width="1"/>

    <circle cx="162.35632183908046" cy="311.0123119015048" r="4" fill="#F4B400" stroke="#fff" stroke-width="1"/>

    <rect x="520" y="100" width="15" height="15" fill="#F4B400"/>
    <text x="540" y="112" font-family="Arial" font-size="12" fill="#333">Senda Norte (782m)</text>

</svg>
