<?xml version="1.0" encoding="UTF-8"?>
<svg xmlns="http://www.w3.org/2000/svg" width="800" height="400">
    <rect width="100%" height="100%" fill="#f0f0f0"/>
    <text x="400.0" y="30" font-family="Arial" font-size="20" text-anchor="middle" fill="#333">Altimetría: Senda Costera de Muros del Nalón</text>
    <text x="400.0" y="55" font-family="Arial" font-size="14" text-anchor="middle" fill="#666">Distancia total: 4872m</text>

    <!-- Eje X -->
    <line x1="50" y1="350" x2="750" y2="350" stroke="#333" stroke-width="2"/>
    <text x="400.0" y="390" font-family="Arial" font-size="12" text-anchor="middle" fill="#333">Distancia (m)</text>
    
    <!-- Eje Y -->
    <line x1="50" y1="350" x2="50" y2="50" stroke="#333" stroke-width="2"/>
    <text x="15" y="200.0" font-family="Arial" font-size="12" text-anchor="middle" fill="#333" transform="rotate(270, 15, 200.0)">Altitud (m)</text>

    <line x1="50.0" y1="350" x2="50.0" y2="355" stroke="#333" stroke-width="1"/>
    <text x="50.0" y="370" font-family="Arial" font-size="10" text-anchor="middle" fill="#333">0</text>

    <line x1="225.0" y1="350" x2="225.0" y2="355" stroke="#333" stroke-width="1"/>
    <text x="225.0" y="370" font-family="Arial" font-size="10" text-anchor="middle" fill="#333">1218</text>

    <line x1="400.0" y1="350" x2="400.0" y2="355" stroke="#333" stroke-width="1"/>
    <text x="400.0" y="370" font-family="Arial" font-size="10" text-anchor="middle" fill="#333">2436</text>

    <line x1="575.0" y1="350" x2="575.0" y2="355" stroke="#333" stroke-width="1"/>
    <text x="575.0" y="370" font-family="Arial" font-size="10" text-anchor="middle" fill="#333">3654</text>

    <line x1="750.0" y1="350" x2="750.0" y2="355" stroke="#333" stroke-width="1"/>
    <text x="750.0" y="370" font-family="Arial" font-size="10" text-anchor="middle" fill="#333">4872</text>

    <line x1="50" y1="350.0" x2="45" y2="350.0" stroke="#333" stroke-width="1"/>
    <text x="40" y="355.0" font-family="Arial" font-size="10" text-anchor="end" fill="#333">0</text>

    <line x1="50" y1="275.0" x2="45" y2="275.0" stroke="#333" stroke-width="1"/>
    <text x="40" y="280.0" font-family="Arial" font-size="10" text-anchor="end" fill="#333">29</text>

    <line x1="50" y1="200.0" x2="45" y2="200.0" stroke="#333" stroke-width="1"/>
    <text x="40" y="205.0" font-family="Arial" font-size="10" text-anchor="end" fill="#333">59</text>

    <line x1="50" y1="125.0" x2="45" y2="125.0" stroke="#333" stroke-width="1"/>
    <text x="40" y="130.0" font-family="Arial" font-size="10" text-anchor="end" fill="#333">89</text>

    <line x1="50" y1="50.0" x2="45" y2="50.0" stroke="#333" stroke-width="1"/>
    <text x="40" y="55.0" font-family="Arial" font-size="10" text-anchor="end" fill="#333">118</text>

    <polygon points="50.0,337.363100252738 50.0,97.26200505475992 193.67816091954023,337.363100252738 495.40229885057465,170.55602358887953 556.0344827586207,347.4726200505476 750.0,77.0429654591407 750.0,350 50.0,350" fill="#4285F4" fill-opacity="0.2" stroke="none"/>

    <polyline points="50.0,337.363100252738 50.0,97.26200505475992 193.67816091954023,337.363100252738 495.40229885057465,170.55602358887953 556.0344827586207,347.4726200505476 750.0,77.0429654591407" fill="none" stroke="#4285F4" stroke-width="3"/>

    <circle cx="50.0" cy="337.363100252738" r="4" fill="#4285F4" stroke="#fff" stroke-width="1"/>
    <text x="50.0" y="327.363100252738" font-family="Arial" font-size="10" text-anchor="middle" fill="#333">5m</text>

    <text x="50.0" y="357.363100252738" font-family="Arial" font-size="9" text-anchor="middle" fill="#333" transform="rotate(45, 50.0, 357.363100252738)">Puerto de San Esteban de Pravia</text>

    <circle cx="50.0" cy="97.26200505475992" r="4" fill="#4285F4" stroke="#fff" stroke-width="1"/>
    <text x="50.0" y="87.26200505475992" font-family="Arial" font-size="10" text-anchor="middle" fill="#333">100m</text>

    <text x="50.0" y="117.26200505475992" font-family="Arial" font-size="9" text-anchor="middle" fill="#333" transform="rotate(45, 50.0, 117.26200505475992)">Mirador del Espíritu Santo</text>

    <circle cx="193.67816091954023" cy="337.363100252738" r="4" fill="#4285F4" stroke="#fff" stroke-width="1"/>
    <text x="193.67816091954023" y="327.363100252738" font-family="Arial" font-size="10" text-anchor="middle" fill="#333">5m</text>

    <text x="193.67816091954023" y="357.363100252738" font-family="Arial" font-size="9" text-anchor="middle" fill="#333" transform="rotate(45, 193.67816091954023, 357.363100252738)">Mirador de la Atalaya</text>

    <circle cx="495.40229885057465" cy="170.55602358887953" r="4" fill="#4285F4" stroke="#fff" stroke-width="1"/>
    <text x="495.40229885057465" y="160.55602358887953" font-family="Arial" font-size="10" text-anchor="middle" fill="#333">71m</text>

    <text x="495.40229885057465" y="190.55602358887953" font-family="Arial" font-size="9" text-anchor="middle" fill="#333" transform="rotate(45, 495.40229885057465, 190.55602358887953)">Mirador de los Glayos</text>

    <circle cx="556.0344827586207" cy="347.4726200505476" r="4" fill="#4285F4" stroke="#fff" stroke-width="1"/>
    <text x="556.0344827586207" y="337.4726200505476" font-family="Arial" font-size="10" text-anchor="middle" fill="#333">1m</text>

    <text x="556.0344827586207" y="367.4726200505476" font-family="Arial" font-size="9" text-anchor="middle" fill="#333" transform="rotate(45, 556.0344827586207, 367.4726200505476)">Playas de Xan-Xún y Las Llanas</text>

    <circle cx="750.0" cy="77.0429654591407" r="4" fill="#4285F4" stroke="#fff" stroke-width="1"/>
    <text x="750.0" y="67.0429654591407" font-family="Arial" font-size="10" text-anchor="middle" fill="#333">108m</text>

    <text x="750.0" y="97.0429654591407" font-family="Arial" font-size="9" text-anchor="middle" fill="#333" transform="rotate(45, 750.0, 97.0429654591407)">Mirador Punta del Campón</text>

</svg>
