<?xml version="1.0" encoding="UTF-8"?>
<svg xmlns="http://www.w3.org/2000/svg" width="800" height="400">
    <rect width="100%" height="100%" fill="#f0f0f0"/>
    <text x="400.0" y="30" font-family="Arial" font-size="20" text-anchor="middle" fill="#333">Altimetría: Senda Norte</text>
    <text x="400.0" y="55" font-family="Arial" font-size="14" text-anchor="middle" fill="#666">Distancia total: 782m</text>

    <!-- Eje X -->
    <line x1="50" y1="350" x2="750" y2="350" stroke="#333" stroke-width="2"/>
    <text x="400.0" y="390" font-family="Arial" font-size="12" text-anchor="middle" fill="#333">Distancia (m)</text>
    
    <!-- Eje Y -->
    <line x1="50" y1="350" x2="50" y2="50" stroke="#333" stroke-width="2"/>
    <text x="15" y="200.0" font-family="Arial" font-size="12" text-anchor="middle" fill="#333" transform="rotate(270, 15, 200.0)">Altitud (m)</text>

    <line x1="50.0" y1="350" x2="50.0" y2="355" stroke="#333" stroke-width="1"/>
    <text x="50.0" y="370" font-family="Arial" font-size="10" text-anchor="middle" fill="#333">0</text>

    <line x1="225.0" y1="350" x2="225.0" y2="355" stroke="#333" stroke-width="1"/>
    <text x="225.0" y="370" font-family="Arial" font-size="10" text-anchor="middle" fill="#333">195</text>

    <line x1="400.0" y1="350" x2="400.0" y2="355" stroke="#333" stroke-width="1"/>
    <text x="400.0" y="370" font-family="Arial" font-size="10" text-anchor="middle" fill="#333">391</text>

    <line x1="575.0" y1="350" x2="575.0" y2="355" stroke="#333" stroke-width="1"/>
    <text x="575.0" y="370" font-family="Arial" font-size="10" text-anchor="middle" fill="#333">586</text>

    <line x1="750.0" y1="350" x2="750.0" y2="355" stroke="#333" stroke-width="1"/>
    <text x="750.0" y="370" font-family="Arial" font-size="10" text-anchor="middle" fill="#333">782</text>

    <line x1="50" y1="350.0" x2="45" y2="350.0" stroke="#333" stroke-width="1"/>
    <text x="40" y="355.0" font-family="Arial" font-size="10" text-anchor="end" fill="#333">3</text>

    <line x1="50" y1="275.0" x2="45" y2="275.0" stroke="#333" stroke-width="1"/>
    <text x="40" y="280.0" font-family="Arial" font-size="10" text-anchor="end" fill="#333">7</text>

    <line x1="50" y1="200.0" x2="45" y2="200.0" stroke="#333" stroke-width="1"/>
    <text x="40" y="205.0" font-family="Arial" font-size="10" text-anchor="end" fill="#333">11</text>

    <line x1="50" y1="125.0" x2="45" y2="125.0" stroke="#333" stroke-width="1"/>
    <text x="40" y="130.0" font-family="Arial" font-size="10" text-anchor="end" fill="#333">16</text>

    <line x1="50" y1="50.0" x2="45" y2="50.0" stroke="#333" stroke-width="1"/>
    <text x="40" y="55.0" font-family="Arial" font-size="10" text-anchor="end" fill="#333">20</text>

    <polygon points="50.0,325.0 166.36828644501279,307.1428571428571 281.84143222506395,253.57142857142856 487.7237851662404,164.28571428571425 611.2531969309463,146.4285714285714 750.0,74.99999999999994 750.0,350 50.0,350" fill="#F4B400" fill-opacity="0.2" stroke="none"/>

    <polyline points="50.0,325.0 166.36828644501279,307.1428571428571 281.84143222506395,253.57142857142856 487.7237851662404,164.28571428571425 611.2531969309463,146.4285714285714 750.0,74.99999999999994" fill="none" stroke="#F4B400" stroke-width="3"/>

    <circle cx="50.0" cy="325.0" r="4" fill="#F4B400" stroke="#fff" stroke-width="1"/>
    <text x="50.0" y="315.0" font-family="Arial" font-size="10" text-anchor="middle" fill="#333">5m</text>

    <text x="50.0" y="345.0" font-family="Arial" font-size="9" text-anchor="middle" fill="#333" transform="rotate(45, 50.0, 345.0)">Estación de FEVE San Esteban de Pravia</text>

    <circle cx="166.36828644501279" cy="307.1428571428571" r="4" fill="#F4B400" stroke="#fff" stroke-width="1"/>
    <text x="166.36828644501279" y="297.1428571428571" font-family="Arial" font-size="10" text-anchor="middle" fill="#333">6m</text>

    <text x="166.36828644501279" y="327.1428571428571" font-family="Arial" font-size="9" text-anchor="middle" fill="#333" transform="rotate(45, 166.36828644501279, 327.1428571428571)">Gran Hotel Brillante</text>

    <circle cx="281.84143222506395" cy="253.57142857142856" r="4" fill="#F4B400" stroke="#fff" stroke-width="1"/>
    <text x="281.84143222506395" y="243.57142857142856" font-family="Arial" font-size="10" text-anchor="middle" fill="#333">9m</text>

    <text x="281.84143222506395" y="273.57142857142856" font-family="Arial" font-size="9" text-anchor="middle" fill="#333" transform="rotate(45, 281.84143222506395, 273.57142857142856)">Hotel Kerala</text>

    <circle cx="487.7237851662404" cy="164.28571428571425" r="4" fill="#F4B400" stroke="#fff" stroke-width="1"/>
    <text x="487.7237851662404" y="154.28571428571425" font-family="Arial" font-size="10" text-anchor="middle" fill="#333">14m</text>

    <text x="487.7237851662404" y="184.28571428571425" font-family="Arial" font-size="9" text-anchor="middle" fill="#333" transform="rotate(45, 487.7237851662404, 184.28571428571425)">Club Naútico</text>

    <circle cx="611.2531969309463" cy="146.4285714285714" r="4" fill="#F4B400" stroke="#fff" stroke-width="1"/>
    <text x="611.2531969309463" y="136.4285714285714" font-family="Arial" font-size="10" text-anchor="middle" fill="#333">15m</text>

    <text x="611.2531969309463" y="166.4285714285714" font-family="Arial" font-size="9" text-anchor="middle" fill="#333" transform="rotate(45, 611.2531969309463, 166.4285714285714)">Oficina de Información</text>

    <circle cx="750.0" cy="74.99999999999994" r="4" fill="#F4B400" stroke="#fff" stroke-width="1"/>
    <text x="750.0" y="64.99999999999994" font-family="Arial" font-size="10" text-anchor="middle" fill="#333">19m</text>

    <text x="750.0" y="94.99999999999994" font-family="Arial" font-size="9" text-anchor="middle" fill="#333" transform="rotate(45, 750.0, 94.99999999999994)">Antiguas Tolvas</text>

</svg>
