<?xml version="1.0" encoding="utf-8"?><svg width="auto" height="3820" style="overflow:visible " version="1.1" xmlns="http://www.w3.org/2000/svg"><rect x="20" y="20" width="200" height="40" style="fill:white;stroke:black;stroke-width:1" /><text x="30" y="30" font-size="10" style="fill:blue">rutas</text><text x="30" y="40" font-size="8" style="fill:black">xmlns:xsi: http://www.w3.org/2001/XMLSchema-instance</text><rect x="240" y="20" width="200" height="40" style="fill:white;stroke:black;stroke-width:1" /><text x="250" y="30" font-size="10" style="fill:blue">ruta</text><path d="M220 40 C240 40 220 40 240 40" style="fill:transparent;stroke:black" /><rect x="460" y="20" width="200" height="40" style="fill:white;stroke:black;stroke-width:1" /><text x="470" y="30" font-size="10" style="fill:blue">nombre</text><path d="M440 40 C460 40 440 40 460 40" style="fill:transparent;stroke:black" /><rect x="526" y="20" width="137" height="40" style="fill:green;stroke:black;stroke-width:1" /><text x="536" y="30" font-size="8" style="fill:white">Senda Costera de Muros del Nalón</text><rect x="460" y="70" width="200" height="40" style="fill:white;stroke:black;stroke-width:1" /><text x="470" y="80" font-size="10" style="fill:blue">tipo</text><path d="M440 40 C460 40 440 90 460 90" style="fill:transparent;stroke:black" /><rect x="526" y="70" width="137" height="40" style="fill:green;stroke:black;stroke-width:1" /><text x="536" y="80" font-size="8" style="fill:white">Paisajística</text><rect x="460" y="120" width="200" height="40" style="fill:white;stroke:black;stroke-width:1" /><text x="470" y="130" font-size="10" style="fill:blue">transporte</text><path d="M440 40 C460 40 440 140 460 140" style="fill:transparent;stroke:black" /><rect x="526" y="120" width="137" height="40" style="fill:green;stroke:black;stroke-width:1" /><text x="536" y="130" font-size="8" style="fill:white">A pie</text><rect x="460" y="170" width="200" height="40" style="fill:white;stroke:black;stroke-width:1" /><text x="470" y="180" font-size="10" style="fill:blue">fechaInicio</text><path d="M440 40 C460 40 440 190 460 190" style="fill:transparent;stroke:black" /><text x="470" y="190" font-size="8" style="fill:black">xsi:type: optional</text><rect x="526" y="170" width="137" height="40" style="fill:green;stroke:black;stroke-width:1" /><text x="536" y="180" font-size="8" style="fill:white">2025-06-15</text><rect x="460" y="220" width="200" height="40" style="fill:white;stroke:black;stroke-width:1" /><text x="470" y="230" font-size="10" style="fill:blue">horaInicio</text><path d="M440 40 C460 40 440 240 460 240" style="fill:transparent;stroke:black" /><text x="470" y="240" font-size="8" style="fill:black">xsi:type: optional</text><rect x="526" y="220" width="137" height="40" style="fill:green;stroke:black;stroke-width:1" /><text x="536" y="230" font-size="8" style="fill:white">10:00</text><rect x="460" y="270" width="200" height="40" style="fill:white;stroke:black;stroke-width:1" /><text x="470" y="280" font-size="10" style="fill:blue">duracion</text><path d="M440 40 C460 40 440 290 460 290" style="fill:transparent;stroke:black" /><rect x="526" y="270" width="137" height="40" style="fill:green;stroke:black;stroke-width:1" /><text x="536" y="280" font-size="8" style="fill:white">3 horas</text><rect x="460" y="320" width="200" height="40" style="fill:white;stroke:black;stroke-width:1" /><text x="470" y="330" font-size="10" style="fill:blue">agencia</text><path d="M440 40 C460 40 440 340 460 340" style="fill:transparent;stroke:black" /><rect x="526" y="320" width="137" height="40" style="fill:green;stroke:black;stroke-width:1" /><text x="536" y="330" font-size="8" style="fill:white">Sin agencia</text><rect x="460" y="370" width="200" height="40" style="fill:white;stroke:black;stroke-width:1" /><text x="470" y="380" font-size="10" style="fill:blue">descripcion</text><path d="M440 40 C460 40 440 390 460 390" style="fill:transparent;stroke:black" /><rect x="526" y="370" width="137" height="40" style="fill:green;stroke:black;stroke-width:1" /><text x="536" y="380" font-size="8" style="fill:white">
            La Senda Costera de Muros del Nalón es un recorrido espectacular que discurre por los acantilados 
            de la costa asturiana. Durante el camino podrás disfrutar de impresionantes vistas al Mar Cantábrico, 
            descubrir calas escondidas y admirar la rica vegetación de la zona. Es uno de los tramos más 
            bellos del Camino de Santiago del Norte.
        </text><rect x="460" y="420" width="200" height="40" style="fill:white;stroke:black;stroke-width:1" /><text x="470" y="430" font-size="10" style="fill:blue">personasAdecuadas</text><path d="M440 40 C460 40 440 440 460 440" style="fill:transparent;stroke:black" /><rect x="526" y="420" width="137" height="40" style="fill:green;stroke:black;stroke-width:1" /><text x="536" y="430" font-size="8" style="fill:white">Se puede ir con niños</text><rect x="460" y="470" width="200" height="40" style="fill:white;stroke:black;stroke-width:1" /><text x="470" y="480" font-size="10" style="fill:blue">puntoInicio</text><path d="M440 40 C460 40 440 490 460 490" style="fill:transparent;stroke:black" /><rect x="680" y="470" width="200" height="40" style="fill:white;stroke:black;stroke-width:1" /><text x="690" y="480" font-size="10" style="fill:blue">lugar</text><path d="M660 490 C680 490 660 490 680 490" style="fill:transparent;stroke:black" /><rect x="746" y="470" width="137" height="40" style="fill:green;stroke:black;stroke-width:1" /><text x="756" y="480" font-size="8" style="fill:white">Puerto de San Esteban de Pravia</text><rect x="680" y="520" width="200" height="40" style="fill:white;stroke:black;stroke-width:1" /><text x="690" y="530" font-size="10" style="fill:blue">direccion</text><path d="M660 490 C680 490 660 540 680 540" style="fill:transparent;stroke:black" /><rect x="746" y="520" width="137" height="40" style="fill:green;stroke:black;stroke-width:1" /><text x="756" y="530" font-size="8" style="fill:white">Paseo Marítimo Marq Santulla</text><rect x="680" y="570" width="200" height="40" style="fill:white;stroke:black;stroke-width:1" /><text x="690" y="580" font-size="10" style="fill:blue">coordenadas</text><path d="M660 490 C680 490 660 590 680 590" style="fill:transparent;stroke:black" /><rect x="900" y="570" width="200" height="40" style="fill:white;stroke:black;stroke-width:1" /><text x="910" y="580" font-size="10" style="fill:blue">longitud</text><path d="M880 590 C900 590 880 590 900 590" style="fill:transparent;stroke:black" /><rect x="966" y="570" width="137" height="40" style="fill:green;stroke:black;stroke-width:1" /><text x="976" y="580" font-size="8" style="fill:white">-6.079167</text><rect x="900" y="620" width="200" height="40" style="fill:white;stroke:black;stroke-width:1" /><text x="910" y="630" font-size="10" style="fill:blue">latitud</text><path d="M880 590 C900 590 880 640 900 640" style="fill:transparent;stroke:black" /><rect x="966" y="620" width="137" height="40" style="fill:green;stroke:black;stroke-width:1" /><text x="976" y="630" font-size="8" style="fill:white">43.564444</text><rect x="900" y="670" width="200" height="40" style="fill:white;stroke:black;stroke-width:1" /><text x="910" y="680" font-size="10" style="fill:blue">altitud</text><path d="M880 590 C900 590 880 690 900 690" style="fill:transparent;stroke:black" /><rect x="966" y="670" width="137" height="40" style="fill:green;stroke:black;stroke-width:1" /><text x="976" y="680" font-size="8" style="fill:white">5</text><rect x="460" y="820" width="200" height="40" style="fill:white;stroke:black;stroke-width:1" /><text x="470" y="830" font-size="10" style="fill:blue">hitos</text><path d="M440 40 C460 40 440 840 460 840" style="fill:transparent;stroke:black" /><rect x="680" y="820" width="200" height="40" style="fill:white;stroke:black;stroke-width:1" /><text x="690" y="830" font-size="10" style="fill:blue">hito</text><path d="M660 840 C680 840 660 840 680 840" style="fill:transparent;stroke:black" /><rect x="900" y="820" width="200" height="40" style="fill:white;stroke:black;stroke-width:1" /><text x="910" y="830" font-size="10" style="fill:blue">nombre</text><path d="M880 840 C900 840 880 840 900 840" style="fill:transparent;stroke:black" /><rect x="966" y="820" width="137" height="40" style="fill:green;stroke:black;stroke-width:1" /><text x="976" y="830" font-size="8" style="fill:white">Mirador del Espíritu Santo</text><rect x="900" y="870" width="200" height="40" style="fill:white;stroke:black;stroke-width:1" /><text x="910" y="880" font-size="10" style="fill:blue">descripcion</text><path d="M880 840 C900 840 880 890 900 890" style="fill:transparent;stroke:black" /><rect x="966" y="870" width="137" height="40" style="fill:green;stroke:black;stroke-width:1" /><text x="976" y="880" font-size="8" style="fill:white">
                    Un impresionante mirador sobre un acantilado que ofrece vistas panorámicas del Mar Cantábrico. 
                    Es un lugar ideal para comenzar la ruta con una primera toma de contacto con el paisaje costero.
                </text><rect x="900" y="920" width="200" height="40" style="fill:white;stroke:black;stroke-width:1" /><text x="910" y="930" font-size="10" style="fill:blue">coordenadas</text><path d="M880 840 C900 840 880 940 900 940" style="fill:transparent;stroke:black" /><rect x="1120" y="920" width="200" height="40" style="fill:white;stroke:black;stroke-width:1" /><text x="1130" y="930" font-size="10" style="fill:blue">longitud</text><path d="M1100 940 C1120 940 1100 940 1120 940" style="fill:transparent;stroke:black" /><rect x="1186" y="920" width="137" height="40" style="fill:green;stroke:black;stroke-width:1" /><text x="1196" y="930" font-size="8" style="fill:white">-6.0816667</text><rect x="1120" y="970" width="200" height="40" style="fill:white;stroke:black;stroke-width:1" /><text x="1130" y="980" font-size="10" style="fill:blue">latitud</text><path d="M1100 940 C1120 940 1100 990 1120 990" style="fill:transparent;stroke:black" /><rect x="1186" y="970" width="137" height="40" style="fill:green;stroke:black;stroke-width:1" /><text x="1196" y="980" font-size="8" style="fill:white">43.5630556</text><rect x="1120" y="1020" width="200" height="40" style="fill:white;stroke:black;stroke-width:1" /><text x="1130" y="1030" font-size="10" style="fill:blue">altitud</text><path d="M1100 940 C1120 940 1100 1040 1120 1040" style="fill:transparent;stroke:black" /><rect x="1186" y="1020" width="137" height="40" style="fill:green;stroke:black;stroke-width:1" /><text x="1196" y="1030" font-size="8" style="fill:white">100</text><rect x="900" y="1120" width="200" height="40" style="fill:white;stroke:black;stroke-width:1" /><text x="910" y="1130" font-size="10" style="fill:blue">distancia</text><path d="M880 840 C900 840 880 1140 900 1140" style="fill:transparent;stroke:black" /><text x="910" y="1140" font-size="8" style="fill:black">unidad: m</text><rect x="966" y="1120" width="137" height="40" style="fill:green;stroke:black;stroke-width:1" /><text x="976" y="1130" font-size="8" style="fill:white">0</text><rect x="900" y="1170" width="200" height="40" style="fill:white;stroke:black;stroke-width:1" /><text x="910" y="1180" font-size="10" style="fill:blue">fotografias</text><path d="M880 840 C900 840 880 1190 900 1190" style="fill:transparent;stroke:black" /><rect x="1120" y="1170" width="200" height="40" style="fill:white;stroke:black;stroke-width:1" /><text x="1130" y="1180" font-size="10" style="fill:blue">fotografia</text><path d="M1100 1190 C1120 1190 1100 1190 1120 1190" style="fill:transparent;stroke:black" /><rect x="1186" y="1170" width="137" height="40" style="fill:green;stroke:black;stroke-width:1" /><text x="1196" y="1180" font-size="8" style="fill:white">miradorEspirituSanto.png</text><rect x="680" y="1320" width="200" height="40" style="fill:white;stroke:black;stroke-width:1" /><text x="690" y="1330" font-size="10" style="fill:blue">hito</text><path d="M660 840 C680 840 660 1340 680 1340" style="fill:transparent;stroke:black" /><rect x="900" y="1320" width="200" height="40" style="fill:white;stroke:black;stroke-width:1" /><text x="910" y="1330" font-size="10" style="fill:blue">nombre</text><path d="M880 1340 C900 1340 880 1340 900 1340" style="fill:transparent;stroke:black" /><rect x="966" y="1320" width="137" height="40" style="fill:green;stroke:black;stroke-width:1" /><text x="976" y="1330" font-size="8" style="fill:white">Mirador de la Atalaya</text><rect x="900" y="1370" width="200" height="40" style="fill:white;stroke:black;stroke-width:1" /><text x="910" y="1380" font-size="10" style="fill:blue">descripcion</text><path d="M880 1340 C900 1340 880 1390 900 1390" style="fill:transparent;stroke:black" /><rect x="966" y="1370" width="137" height="40" style="fill:green;stroke:black;stroke-width:1" /><text x="976" y="1380" font-size="8" style="fill:white">
                    Situado cerca del núcleo urbano, este mirador permite contemplar el puerto de San Esteban y los 
                    acantilados cercanos. Su baja altitud lo hace fácilmente accesible y perfecto para una parada breve.
                </text><rect x="900" y="1420" width="200" height="40" style="fill:white;stroke:black;stroke-width:1" /><text x="910" y="1430" font-size="10" style="fill:blue">coordenadas</text><path d="M880 1340 C900 1340 880 1440 900 1440" style="fill:transparent;stroke:black" /><rect x="1120" y="1420" width="200" height="40" style="fill:white;stroke:black;stroke-width:1" /><text x="1130" y="1430" font-size="10" style="fill:blue">longitud</text><path d="M1100 1440 C1120 1440 1100 1440 1120 1440" style="fill:transparent;stroke:black" /><rect x="1186" y="1420" width="137" height="40" style="fill:green;stroke:black;stroke-width:1" /><text x="1196" y="1430" font-size="8" style="fill:white">-6.089722</text><rect x="1120" y="1470" width="200" height="40" style="fill:white;stroke:black;stroke-width:1" /><text x="1130" y="1480" font-size="10" style="fill:blue">latitud</text><path d="M1100 1440 C1120 1440 1100 1490 1120 1490" style="fill:transparent;stroke:black" /><rect x="1186" y="1470" width="137" height="40" style="fill:green;stroke:black;stroke-width:1" /><text x="1196" y="1480" font-size="8" style="fill:white">43.557222</text><rect x="1120" y="1520" width="200" height="40" style="fill:white;stroke:black;stroke-width:1" /><text x="1130" y="1530" font-size="10" style="fill:blue">altitud</text><path d="M1100 1440 C1120 1440 1100 1540 1120 1540" style="fill:transparent;stroke:black" /><rect x="1186" y="1520" width="137" height="40" style="fill:green;stroke:black;stroke-width:1" /><text x="1196" y="1530" font-size="8" style="fill:white">5</text><rect x="900" y="1620" width="200" height="40" style="fill:white;stroke:black;stroke-width:1" /><text x="910" y="1630" font-size="10" style="fill:blue">distancia</text><path d="M880 1340 C900 1340 880 1640 900 1640" style="fill:transparent;stroke:black" /><text x="910" y="1640" font-size="8" style="fill:black">unidad: m</text><rect x="966" y="1620" width="137" height="40" style="fill:green;stroke:black;stroke-width:1" /><text x="976" y="1630" font-size="8" style="fill:white">1000</text><rect x="900" y="1670" width="200" height="40" style="fill:white;stroke:black;stroke-width:1" /><text x="910" y="1680" font-size="10" style="fill:blue">fotografias</text><path d="M880 1340 C900 1340 880 1690 900 1690" style="fill:transparent;stroke:black" /><rect x="1120" y="1670" width="200" height="40" style="fill:white;stroke:black;stroke-width:1" /><text x="1130" y="1680" font-size="10" style="fill:blue">fotografia</text><path d="M1100 1690 C1120 1690 1100 1690 1120 1690" style="fill:transparent;stroke:black" /><rect x="1186" y="1670" width="137" height="40" style="fill:green;stroke:black;stroke-width:1" /><text x="1196" y="1680" font-size="8" style="fill:white">atala1.png</text><rect x="1120" y="1720" width="200" height="40" style="fill:white;stroke:black;stroke-width:1" /><text x="1130" y="1730" font-size="10" style="fill:blue">fotografia</text><path d="M1100 1690 C1120 1690 1100 1740 1120 1740" style="fill:transparent;stroke:black" /><rect x="1186" y="1720" width="137" height="40" style="fill:green;stroke:black;stroke-width:1" /><text x="1196" y="1730" font-size="8" style="fill:white">atala2.png</text><rect x="680" y="1870" width="200" height="40" style="fill:white;stroke:black;stroke-width:1" /><text x="690" y="1880" font-size="10" style="fill:blue">hito</text><path d="M660 840 C680 840 660 1890 680 1890" style="fill:transparent;stroke:black" /><rect x="900" y="1870" width="200" height="40" style="fill:white;stroke:black;stroke-width:1" /><text x="910" y="1880" font-size="10" style="fill:blue">nombre</text><path d="M880 1890 C900 1890 880 1890 900 1890" style="fill:transparent;stroke:black" /><rect x="966" y="1870" width="137" height="40" style="fill:green;stroke:black;stroke-width:1" /><text x="976" y="1880" font-size="8" style="fill:white">Mirador de los Glayos</text><rect x="900" y="1920" width="200" height="40" style="fill:white;stroke:black;stroke-width:1" /><text x="910" y="1930" font-size="10" style="fill:blue">descripcion</text><path d="M880 1890 C900 1890 880 1940 900 1940" style="fill:transparent;stroke:black" /><rect x="966" y="1920" width="137" height="40" style="fill:green;stroke:black;stroke-width:1" /><text x="976" y="1930" font-size="8" style="fill:white">
                    Un punto elevado desde el que se aprecia una panorámica única de la costa escarpada y la vegetación 
                    típica asturiana. Ideal para los amantes de la fotografía de naturaleza.
                </text><rect x="900" y="1970" width="200" height="40" style="fill:white;stroke:black;stroke-width:1" /><text x="910" y="1980" font-size="10" style="fill:blue">coordenadas</text><path d="M880 1890 C900 1890 880 1990 900 1990" style="fill:transparent;stroke:black" /><rect x="1120" y="1970" width="200" height="40" style="fill:white;stroke:black;stroke-width:1" /><text x="1130" y="1980" font-size="10" style="fill:blue">longitud</text><path d="M1100 1990 C1120 1990 1100 1990 1120 1990" style="fill:transparent;stroke:black" /><rect x="1186" y="1970" width="137" height="40" style="fill:green;stroke:black;stroke-width:1" /><text x="1196" y="1980" font-size="8" style="fill:white">-6.0950</text><rect x="1120" y="2020" width="200" height="40" style="fill:white;stroke:black;stroke-width:1" /><text x="1130" y="2030" font-size="10" style="fill:blue">latitud</text><path d="M1100 1990 C1120 1990 1100 2040 1120 2040" style="fill:transparent;stroke:black" /><rect x="1186" y="2020" width="137" height="40" style="fill:green;stroke:black;stroke-width:1" /><text x="1196" y="2030" font-size="8" style="fill:white">43.5750</text><rect x="1120" y="2070" width="200" height="40" style="fill:white;stroke:black;stroke-width:1" /><text x="1130" y="2080" font-size="10" style="fill:blue">altitud</text><path d="M1100 1990 C1120 1990 1100 2090 1120 2090" style="fill:transparent;stroke:black" /><rect x="1186" y="2070" width="137" height="40" style="fill:green;stroke:black;stroke-width:1" /><text x="1196" y="2080" font-size="8" style="fill:white">71</text><rect x="900" y="2170" width="200" height="40" style="fill:white;stroke:black;stroke-width:1" /><text x="910" y="2180" font-size="10" style="fill:blue">distancia</text><path d="M880 1890 C900 1890 880 2190 900 2190" style="fill:transparent;stroke:black" /><text x="910" y="2190" font-size="8" style="fill:black">unidad: m</text><rect x="966" y="2170" width="137" height="40" style="fill:green;stroke:black;stroke-width:1" /><text x="976" y="2180" font-size="8" style="fill:white">2100</text><rect x="900" y="2220" width="200" height="40" style="fill:white;stroke:black;stroke-width:1" /><text x="910" y="2230" font-size="10" style="fill:blue">fotografias</text><path d="M880 1890 C900 1890 880 2240 900 2240" style="fill:transparent;stroke:black" /><rect x="1120" y="2220" width="200" height="40" style="fill:white;stroke:black;stroke-width:1" /><text x="1130" y="2230" font-size="10" style="fill:blue">fotografia</text><path d="M1100 2240 C1120 2240 1100 2240 1120 2240" style="fill:transparent;stroke:black" /><rect x="1186" y="2220" width="137" height="40" style="fill:green;stroke:black;stroke-width:1" /><text x="1196" y="2230" font-size="8" style="fill:white">glayos1.png</text><rect x="680" y="2370" width="200" height="40" style="fill:white;stroke:black;stroke-width:1" /><text x="690" y="2380" font-size="10" style="fill:blue">hito</text><path d="M660 840 C680 840 660 2390 680 2390" style="fill:transparent;stroke:black" /><rect x="900" y="2370" width="200" height="40" style="fill:white;stroke:black;stroke-width:1" /><text x="910" y="2380" font-size="10" style="fill:blue">nombre</text><path d="M880 2390 C900 2390 880 2390 900 2390" style="fill:transparent;stroke:black" /><rect x="966" y="2370" width="137" height="40" style="fill:green;stroke:black;stroke-width:1" /><text x="976" y="2380" font-size="8" style="fill:white">Playas de Xan-Xún y Las Llanas</text><rect x="900" y="2420" width="200" height="40" style="fill:white;stroke:black;stroke-width:1" /><text x="910" y="2430" font-size="10" style="fill:blue">descripcion</text><path d="M880 2390 C900 2390 880 2440 900 2440" style="fill:transparent;stroke:black" /><rect x="966" y="2420" width="137" height="40" style="fill:green;stroke:black;stroke-width:1" /><text x="976" y="2430" font-size="8" style="fill:white">
                    Dos playas salvajes y poco frecuentadas, rodeadas de naturaleza virgen. 
                    Son un excelente lugar para descansar o refrescarse durante el recorrido.
                </text><rect x="900" y="2470" width="200" height="40" style="fill:white;stroke:black;stroke-width:1" /><text x="910" y="2480" font-size="10" style="fill:blue">coordenadas</text><path d="M880 2390 C900 2390 880 2490 900 2490" style="fill:transparent;stroke:black" /><rect x="1120" y="2470" width="200" height="40" style="fill:white;stroke:black;stroke-width:1" /><text x="1130" y="2480" font-size="10" style="fill:blue">longitud</text><path d="M1100 2490 C1120 2490 1100 2490 1120 2490" style="fill:transparent;stroke:black" /><rect x="1186" y="2470" width="137" height="40" style="fill:green;stroke:black;stroke-width:1" /><text x="1196" y="2480" font-size="8" style="fill:white">-6.105278</text><rect x="1120" y="2520" width="200" height="40" style="fill:white;stroke:black;stroke-width:1" /><text x="1130" y="2530" font-size="10" style="fill:blue">latitud</text><path d="M1100 2490 C1120 2490 1100 2540 1120 2540" style="fill:transparent;stroke:black" /><rect x="1186" y="2520" width="137" height="40" style="fill:green;stroke:black;stroke-width:1" /><text x="1196" y="2530" font-size="8" style="fill:white">43.557778</text><rect x="1120" y="2570" width="200" height="40" style="fill:white;stroke:black;stroke-width:1" /><text x="1130" y="2580" font-size="10" style="fill:blue">altitud</text><path d="M1100 2490 C1120 2490 1100 2590 1120 2590" style="fill:transparent;stroke:black" /><rect x="1186" y="2570" width="137" height="40" style="fill:green;stroke:black;stroke-width:1" /><text x="1196" y="2580" font-size="8" style="fill:white">1</text><rect x="900" y="2670" width="200" height="40" style="fill:white;stroke:black;stroke-width:1" /><text x="910" y="2680" font-size="10" style="fill:blue">distancia</text><path d="M880 2390 C900 2390 880 2690 900 2690" style="fill:transparent;stroke:black" /><text x="910" y="2690" font-size="8" style="fill:black">unidad: m</text><rect x="966" y="2670" width="137" height="40" style="fill:green;stroke:black;stroke-width:1" /><text x="976" y="2680" font-size="8" style="fill:white">422</text><rect x="900" y="2720" width="200" height="40" style="fill:white;stroke:black;stroke-width:1" /><text x="910" y="2730" font-size="10" style="fill:blue">fotografias</text><path d="M880 2390 C900 2390 880 2740 900 2740" style="fill:transparent;stroke:black" /><rect x="1120" y="2720" width="200" height="40" style="fill:white;stroke:black;stroke-width:1" /><text x="1130" y="2730" font-size="10" style="fill:blue">fotografia</text><path d="M1100 2740 C1120 2740 1100 2740 1120 2740" style="fill:transparent;stroke:black" /><rect x="1186" y="2720" width="137" height="40" style="fill:green;stroke:black;stroke-width:1" /><text x="1196" y="2730" font-size="8" style="fill:white">playaXanXun1.png</text><rect x="680" y="2870" width="200" height="40" style="fill:white;stroke:black;stroke-width:1" /><text x="690" y="2880" font-size="10" style="fill:blue">hito</text><path d="M660 840 C680 840 660 2890 680 2890" style="fill:transparent;stroke:black" /><rect x="900" y="2870" width="200" height="40" style="fill:white;stroke:black;stroke-width:1" /><text x="910" y="2880" font-size="10" style="fill:blue">nombre</text><path d="M880 2890 C900 2890 880 2890 900 2890" style="fill:transparent;stroke:black" /><rect x="966" y="2870" width="137" height="40" style="fill:green;stroke:black;stroke-width:1" /><text x="976" y="2880" font-size="8" style="fill:white">Mirador Punta del Campón</text><rect x="900" y="2920" width="200" height="40" style="fill:white;stroke:black;stroke-width:1" /><text x="910" y="2930" font-size="10" style="fill:blue">descripcion</text><path d="M880 2890 C900 2890 880 2940 900 2940" style="fill:transparent;stroke:black" /><rect x="966" y="2920" width="137" height="40" style="fill:green;stroke:black;stroke-width:1" /><text x="976" y="2930" font-size="8" style="fill:white">
                    Uno de los puntos más altos del recorrido, desde donde se puede disfrutar de una vista extensa 
                    de la costa asturiana y del horizonte marino. Perfecto para cerrar la ruta con una vista inolvidable.
                </text><rect x="900" y="2970" width="200" height="40" style="fill:white;stroke:black;stroke-width:1" /><text x="910" y="2980" font-size="10" style="fill:blue">coordenadas</text><path d="M880 2890 C900 2890 880 2990 900 2990" style="fill:transparent;stroke:black" /><rect x="1120" y="2970" width="200" height="40" style="fill:white;stroke:black;stroke-width:1" /><text x="1130" y="2980" font-size="10" style="fill:blue">longitud</text><path d="M1100 2990 C1120 2990 1100 2990 1120 2990" style="fill:transparent;stroke:black" /><rect x="1186" y="2970" width="137" height="40" style="fill:green;stroke:black;stroke-width:1" /><text x="1196" y="2980" font-size="8" style="fill:white">-6.110278</text><rect x="1120" y="3020" width="200" height="40" style="fill:white;stroke:black;stroke-width:1" /><text x="1130" y="3030" font-size="10" style="fill:blue">latitud</text><path d="M1100 2990 C1120 2990 1100 3040 1120 3040" style="fill:transparent;stroke:black" /><rect x="1186" y="3020" width="137" height="40" style="fill:green;stroke:black;stroke-width:1" /><text x="1196" y="3030" font-size="8" style="fill:white">43.555556</text><rect x="1120" y="3070" width="200" height="40" style="fill:white;stroke:black;stroke-width:1" /><text x="1130" y="3080" font-size="10" style="fill:blue">altitud</text><path d="M1100 2990 C1120 2990 1100 3090 1120 3090" style="fill:transparent;stroke:black" /><rect x="1186" y="3070" width="137" height="40" style="fill:green;stroke:black;stroke-width:1" /><text x="1196" y="3080" font-size="8" style="fill:white">108</text><rect x="900" y="3170" width="200" height="40" style="fill:white;stroke:black;stroke-width:1" /><text x="910" y="3180" font-size="10" style="fill:blue">distancia</text><path d="M880 2890 C900 2890 880 3190 900 3190" style="fill:transparent;stroke:black" /><text x="910" y="3190" font-size="8" style="fill:black">unidad: m</text><rect x="966" y="3170" width="137" height="40" style="fill:green;stroke:black;stroke-width:1" /><text x="976" y="3180" font-size="8" style="fill:white">1350</text><rect x="900" y="3220" width="200" height="40" style="fill:white;stroke:black;stroke-width:1" /><text x="910" y="3230" font-size="10" style="fill:blue">fotografias</text><path d="M880 2890 C900 2890 880 3240 900 3240" style="fill:transparent;stroke:black" /><rect x="1120" y="3220" width="200" height="40" style="fill:white;stroke:black;stroke-width:1" /><text x="1130" y="3230" font-size="10" style="fill:blue">fotografia</text><path d="M1100 3240 C1120 3240 1100 3240 1120 3240" style="fill:transparent;stroke:black" /><rect x="1186" y="3220" width="137" height="40" style="fill:green;stroke:black;stroke-width:1" /><text x="1196" y="3230" font-size="8" style="fill:white">campon1.png</text><rect x="1120" y="3270" width="200" height="40" style="fill:white;stroke:black;stroke-width:1" /><text x="1130" y="3280" font-size="10" style="fill:blue">fotografia</text><path d="M1100 3240 C1120 3240 1100 3290 1120 3290" style="fill:transparent;stroke:black" /><rect x="1186" y="3270" width="137" height="40" style="fill:green;stroke:black;stroke-width:1" /><text x="1196" y="3280" font-size="8" style="fill:white">campon2.png</text><rect x="460" y="3470" width="200" height="40" style="fill:white;stroke:black;stroke-width:1" /><text x="470" y="3480" font-size="10" style="fill:blue">referencias</text><path d="M440 40 C460 40 440 3490 460 3490" style="fill:transparent;stroke:black" /><rect x="680" y="3470" width="200" height="40" style="fill:white;stroke:black;stroke-width:1" /><text x="690" y="3480" font-size="10" style="fill:blue">referencia</text><path d="M660 3490 C680 3490 660 3490 680 3490" style="fill:transparent;stroke:black" /><rect x="746" y="3470" width="137" height="40" style="fill:green;stroke:black;stroke-width:1" /><text x="756" y="3480" font-size="8" style="fill:white">https://www.turismoasturias.es/es/descubre/naturaleza/rutas/senderismo/senda-costera-san-esteban-de-pravia-playa-del-aguilar</text><rect x="680" y="3520" width="200" height="40" style="fill:white;stroke:black;stroke-width:1" /><text x="690" y="3530" font-size="10" style="fill:blue">referencia</text><path d="M660 3490 C680 3490 660 3540 680 3540" style="fill:transparent;stroke:black" /><rect x="746" y="3520" width="137" height="40" style="fill:green;stroke:black;stroke-width:1" /><text x="756" y="3530" font-size="8" style="fill:white">https://asturias.com/senda-de-los-miradores/</text><rect x="680" y="3570" width="200" height="40" style="fill:white;stroke:black;stroke-width:1" /><text x="690" y="3580" font-size="10" style="fill:blue">referencia</text><path d="M660 3490 C680 3490 660 3590 680 3590" style="fill:transparent;stroke:black" /><rect x="746" y="3570" width="137" height="40" style="fill:green;stroke:black;stroke-width:1" /><text x="756" y="3580" font-size="8" style="fill:white">https://www.murosdenalon.es/que-visitar/-/asset_publisher/6277037ba107/content/turismo-visitar-senda-costera</text><rect x="460" y="3670" width="200" height="40" style="fill:white;stroke:black;stroke-width:1" /><text x="470" y="3680" font-size="10" style="fill:blue">recomendacion</text><path d="M440 40 C460 40 440 3690 460 3690" style="fill:transparent;stroke:black" /><rect x="526" y="3670" width="137" height="40" style="fill:green;stroke:black;stroke-width:1" /><text x="536" y="3680" font-size="8" style="fill:white">9</text></svg>